HIERARCHY
ROOT Hips
{
	OFFSET 0.000000 100.481300 0.000000
	CHANNELS 6 Xposition Yposition Zposition Xrotation Yrotation Zrotation 
	JOINT Spine
	{
		OFFSET -0.279200 12.230698 -2.892100
		CHANNELS 3 Xrotation Yrotation Zrotation
		JOINT Spine1
		{
			OFFSET -0.232667 10.192268 -1.242267
			CHANNELS 3 Xrotation Yrotation Zrotation
			JOINT Spine1_split
			{
				OFFSET -0.232667 10.192268 -1.242267
				CHANNELS 3 Xrotation Yrotation Zrotation
				JOINT Spine2
				{
					OFFSET -0.232667 10.192268 -1.242267
					CHANNELS 3 Xrotation Yrotation Zrotation
					JOINT Neck
					{
						OFFSET -0.418800 17.814194 8.416900
						CHANNELS 3 Xrotation Yrotation Zrotation
						JOINT Head
						{
							OFFSET 0.000000 7.031097 3.806800
							CHANNELS 3 Xrotation Yrotation Zrotation
							JOINT HeadTop_End
							{
								OFFSET 0.000000 24.646606 12.978600
								CHANNELS 3 Xrotation Yrotation Zrotation
								End Site
								{
									OFFSET 0.000000 0.000000 0.000000
								}
							}
						}
					}
					JOINT LeftShoulder
					{
						OFFSET 8.476499 7.247704 -3.868750
						CHANNELS 3 Xrotation Yrotation Zrotation
						JOINT LeftShoulder_split
						{
							OFFSET 8.476499 7.247704 -3.868750
							CHANNELS 3 Xrotation Yrotation Zrotation
							JOINT LeftArm
							{
								OFFSET 9.308998 -2.777710 0.208600
								CHANNELS 3 Xrotation Yrotation Zrotation
								JOINT LeftForeArm
								{
									OFFSET 29.972298 0.000000 0.000000
									CHANNELS 3 Xrotation Yrotation Zrotation
									JOINT LeftHand
									{
										OFFSET 26.026505 0.000000 0.000000
										CHANNELS 3 Xrotation Yrotation Zrotation
										JOINT LeftHandThumb1
										{
											OFFSET 12.240501 -7.147949 9.207150
											CHANNELS 3 Xrotation Yrotation Zrotation
											JOINT LeftHandThumb2
											{
												OFFSET 4.138618 -2.389435 2.389433
												CHANNELS 3 Xrotation Yrotation Zrotation
												JOINT LeftHandThumb3
												{
													OFFSET 2.726913 -1.574387 1.574386
													CHANNELS 3 Xrotation Yrotation Zrotation
													JOINT LeftHandThumb4
													{
														OFFSET 3.941010 -2.275345 2.275342
														CHANNELS 3 Xrotation Yrotation Zrotation
														End Site
														{
															OFFSET 0.000000 0.000000 0.000000
														}
													}
												}
											}
										}
										JOINT LeftHandIndex1
										{
											OFFSET 24.424698 -1.985611 5.953459
											CHANNELS 3 Xrotation Yrotation Zrotation
											JOINT LeftHandIndex2
											{
												OFFSET 6.426697 0.000000 0.000000
												CHANNELS 3 Xrotation Yrotation Zrotation
												JOINT LeftHandIndex3
												{
													OFFSET 5.337898 0.000000 0.000000
													CHANNELS 3 Xrotation Yrotation Zrotation
													JOINT LeftHandIndex4
													{
														OFFSET 4.409401 0.000000 0.000000
														CHANNELS 3 Xrotation Yrotation Zrotation
														End Site
														{
															OFFSET 0.000000 0.000000 0.000000
														}
													}
												}
											}
										}
										JOINT LeftHandMiddle1
										{
											OFFSET 23.810104 0.000000 0.000000
											CHANNELS 3 Xrotation Yrotation Zrotation
											JOINT LeftHandMiddle2
											{
												OFFSET 7.176498 0.000000 0.000000
												CHANNELS 3 Xrotation Yrotation Zrotation
												JOINT LeftHandMiddle3
												{
													OFFSET 6.774902 0.000000 0.000000
													CHANNELS 3 Xrotation Yrotation Zrotation
													JOINT LeftHandMiddle4
													{
														OFFSET 5.403328 0.000000 0.000000
														CHANNELS 3 Xrotation Yrotation Zrotation
														End Site
														{
															OFFSET 0.000000 0.000000 0.000000
														}
													}
												}
											}
										}
										JOINT LeftHandRing1
										{
											OFFSET 22.908401 -0.839279 -6.020567
											CHANNELS 3 Xrotation Yrotation Zrotation
											JOINT LeftHandRing2
											{
												OFFSET 6.337502 0.000000 0.000000
												CHANNELS 3 Xrotation Yrotation Zrotation
												JOINT LeftHandRing3
												{
													OFFSET 5.779297 0.000000 0.000000
													CHANNELS 3 Xrotation Yrotation Zrotation
													JOINT LeftHandRing4
													{
														OFFSET 4.965698 0.000000 0.000000
														CHANNELS 3 Xrotation Yrotation Zrotation
														End Site
														{
															OFFSET 0.000000 0.000000 0.000000
														}
													}
												}
											}
										}
										JOINT LeftHandPinky1
										{
											OFFSET 20.037003 -1.530319 -10.950146
											CHANNELS 3 Xrotation Yrotation Zrotation
											JOINT LeftHandPinky2
											{
												OFFSET 5.254700 0.000000 0.000000
												CHANNELS 3 Xrotation Yrotation Zrotation
												JOINT LeftHandPinky3
												{
													OFFSET 4.810204 0.000000 0.000000
													CHANNELS 3 Xrotation Yrotation Zrotation
													JOINT LeftHandPinky4
													{
														OFFSET 3.647202 0.000000 0.000000
														CHANNELS 3 Xrotation Yrotation Zrotation
														End Site
														{
															OFFSET 0.000000 0.000000 0.000000
														}
													}
												}
											}
										}
									}
								}
							}
						}
					}
					JOINT RightShoulder
					{
						OFFSET -7.570500 7.247704 -3.868750
						CHANNELS 3 Xrotation Yrotation Zrotation
						JOINT RightShoulder_split
						{
							OFFSET -7.570500 7.247704 -3.868750
							CHANNELS 3 Xrotation Yrotation Zrotation
							JOINT RightArm
							{
								OFFSET -9.308998 -2.777710 0.208500
								CHANNELS 3 Xrotation Yrotation Zrotation
								JOINT RightForeArm
								{
									OFFSET -29.972300 0.000000 0.000000
									CHANNELS 3 Xrotation Yrotation Zrotation
									JOINT RightHand
									{
										OFFSET -26.026505 0.000000 0.000000
										CHANNELS 3 Xrotation Yrotation Zrotation
										JOINT RightHandThumb1
										{
											OFFSET -12.240601 -7.148026 9.207092
											CHANNELS 3 Xrotation Yrotation Zrotation
											JOINT RightHandThumb2
											{
												OFFSET -4.138618 -2.389435 2.389433
												CHANNELS 3 Xrotation Yrotation Zrotation
												JOINT RightHandThumb3
												{
													OFFSET -2.726974 -1.574417 1.574421
													CHANNELS 3 Xrotation Yrotation Zrotation
													JOINT RightHandThumb4
													{
														OFFSET -3.941010 -2.275345 2.275343
														CHANNELS 3 Xrotation Yrotation Zrotation
														End Site
														{
															OFFSET 0.000000 0.000000 0.000000
														}
													}
												}
											}
										}
										JOINT RightHandIndex1
										{
											OFFSET -24.424698 -1.985657 5.953444
											CHANNELS 3 Xrotation Yrotation Zrotation
											JOINT RightHandIndex2
											{
												OFFSET -6.426697 0.000000 0.000000
												CHANNELS 3 Xrotation Yrotation Zrotation
												JOINT RightHandIndex3
												{
													OFFSET -5.337898 0.000000 0.000000
													CHANNELS 3 Xrotation Yrotation Zrotation
													JOINT RightHandIndex4
													{
														OFFSET -4.409401 0.000000 0.000000
														CHANNELS 3 Xrotation Yrotation Zrotation
														End Site
														{
															OFFSET 0.000000 0.000000 0.000000
														}
													}
												}
											}
										}
										JOINT RightHandMiddle1
										{
											OFFSET -23.810097 0.000000 0.000000
											CHANNELS 3 Xrotation Yrotation Zrotation
											JOINT RightHandMiddle2
											{
												OFFSET -7.176498 0.000000 0.000000
												CHANNELS 3 Xrotation Yrotation Zrotation
												JOINT RightHandMiddle3
												{
													OFFSET -6.774902 0.000000 0.000000
													CHANNELS 3 Xrotation Yrotation Zrotation
													JOINT RightHandMiddle4
													{
														OFFSET -5.403328 0.000000 0.000000
														CHANNELS 3 Xrotation Yrotation Zrotation
														End Site
														{
															OFFSET 0.000000 0.000000 0.000000
														}
													}
												}
											}
										}
										JOINT RightHandRing1
										{
											OFFSET -22.908302 -0.839325 -6.020576
											CHANNELS 3 Xrotation Yrotation Zrotation
											JOINT RightHandRing2
											{
												OFFSET -6.337502 0.000000 0.000000
												CHANNELS 3 Xrotation Yrotation Zrotation
												JOINT RightHandRing3
												{
													OFFSET -5.779297 0.000000 0.000000
													CHANNELS 3 Xrotation Yrotation Zrotation
													JOINT RightHandRing4
													{
														OFFSET -4.965698 0.000000 0.000000
														CHANNELS 3 Xrotation Yrotation Zrotation
														End Site
														{
															OFFSET 0.000000 0.000000 0.000000
														}
													}
												}
											}
										}
										JOINT RightHandPinky1
										{
											OFFSET -20.037003 -1.530334 -10.950259
											CHANNELS 3 Xrotation Yrotation Zrotation
											JOINT RightHandPinky2
											{
												OFFSET -5.254700 0.000000 0.000000
												CHANNELS 3 Xrotation Yrotation Zrotation
												JOINT RightHandPinky3
												{
													OFFSET -4.810204 0.000000 0.000000
													CHANNELS 3 Xrotation Yrotation Zrotation
													JOINT RightHandPinky4
													{
														OFFSET -3.647202 0.000000 0.000000
														CHANNELS 3 Xrotation Yrotation Zrotation
														End Site
														{
															OFFSET 0.000000 0.000000 0.000000
														}
													}
												}
											}
										}
									}
								}
							}
						}
					}
				}
			}
		}
	}
	JOINT LeftUpLeg
	{
		OFFSET 15.427100 -6.655098 0.678600
		CHANNELS 3 Xrotation Yrotation Zrotation
		JOINT LeftLeg
		{
			OFFSET 4.081073 -39.591068 13.024000
			CHANNELS 3 Xrotation Yrotation Zrotation
			JOINT LeftFoot
			{
				OFFSET -4.081074 -37.707932 -15.979700
				CHANNELS 3 Xrotation Yrotation Zrotation
				JOINT LeftToeBase
				{
					OFFSET 5.346399 -15.068900 20.645000
					CHANNELS 3 Xrotation Yrotation Zrotation
					JOINT LeftToe_End
					{
						OFFSET 2.754700 0.931300 11.300900
						CHANNELS 3 Xrotation Yrotation Zrotation
						End Site
						{
							OFFSET 0.000000 0.000000 0.000000
						}
					}
				}
			}
		}
	}
	JOINT RightUpLeg
	{
		OFFSET -15.569500 -6.655098 0.678600
		CHANNELS 3 Xrotation Yrotation Zrotation
		JOINT RightLeg
		{
			OFFSET -4.081825 -39.591045 13.023800
			CHANNELS 3 Xrotation Yrotation Zrotation
			JOINT RightFoot
			{
				OFFSET 4.081824 -37.707954 -15.979600
				CHANNELS 3 Xrotation Yrotation Zrotation
				JOINT RightToeBase
				{
					OFFSET -5.346400 -15.068900 20.645000
					CHANNELS 3 Xrotation Yrotation Zrotation
					JOINT RightToe_End
					{
						OFFSET -2.754700 0.931300 11.300900
						CHANNELS 3 Xrotation Yrotation Zrotation
						End Site
						{
							OFFSET 0.000000 0.000000 0.000000
						}
					}
				}
			}
		}
	}
}
MOTION
Frames: 4
Frame Time: 0.016667
18.982601 9.742638 2.972733 -110.245639 70.587956 28.601431 15.257451 -7.560239 -7.673369 10.269410 -4.988679 -4.175165 0.000000 0.000000 0.000000 10.075507 -5.450791 -4.055234 -3.272612 7.228374 -14.282609 -28.199351 11.664152 -14.767923 -0.000000 -0.000000 -0.000001 4.010595 -4.908956 30.425931 0.000000 0.000000 0.000000 -98.272181 29.592949 -48.772284 -0.000001 -29.022075 -0.000000 0.131374 16.629456 8.536188 -1.540036 3.690191 6.142354 3.939051 7.948709 0.746817 -0.579465 1.574990 2.538712 -0.000000 -0.000000 -0.000002 -0.000002 0.000005 0.000012 0.000001 0.000005 -0.000023 0.000000 -0.000002 -0.000010 -0.000000 -0.000002 0.000001 0.000001 -0.001930 0.015990 -0.000002 0.001936 -0.016002 -0.000001 -0.000004 -0.000012 0.000001 0.000001 -0.000000 -0.000002 0.000005 0.000012 0.000000 0.000003 -0.000022 0.000000 -0.000004 -0.000009 -0.000000 -0.000002 -0.000000 -0.018089 4.054258 0.511076 -0.018088 -4.054250 -0.511089 0.000001 -0.000004 -0.000010 -0.000000 -0.000001 0.000001 5.201621 10.649067 -16.868026 0.000000 0.000000 0.000000 -39.319514 45.122794 97.301222 -0.000195 102.936476 0.000188 5.604806 -5.065560 40.880772 -1.849248 -3.581790 -6.586140 4.637205 -8.634128 -0.225410 -1.273763 0.137315 -2.094867 0.000000 -0.000001 0.000001 0.000001 -0.000002 -0.000000 0.000000 0.000002 -0.000000 -0.000002 -0.000003 0.000021 0.000000 -0.000000 -0.000001 0.000001 -0.000002 -0.000001 0.000001 0.000000 0.000001 0.000001 -0.000002 0.000016 -0.000000 0.000001 0.000000 0.000001 -0.000001 0.000004 0.000001 -0.000000 -0.000003 -0.000001 -0.000001 0.000020 -0.000000 0.000000 -0.000001 0.000001 -0.000002 -0.000001 0.000001 0.000001 0.000001 -0.000001 -0.000003 0.000021 0.000000 -0.000001 -0.000001 -102.810897 10.967204 -8.219236 80.352039 18.813618 7.567952 18.347990 -6.038623 1.977315 -0.000004 0.000016 0.000005 0.000000 -0.000000 -0.000000 -22.073670 8.749395 5.620385 82.663409 -2.017524 -0.165225 24.769601 -5.162743 11.088829 -15.637634 -0.000007 -0.000004 0.000003 -0.000000 0.000000 
18.966927 9.729454 3.005081 -110.274210 70.523943 28.587501 15.207893 -7.553297 -7.588165 10.226778 -5.010030 -4.150919 0.000000 0.000000 0.000000 10.032186 -5.472376 -4.029276 -3.171010 7.239969 -14.352370 -28.146069 11.710055 -14.821601 -0.000000 0.000000 0.000002 4.063063 -4.848779 30.216740 0.000000 0.000000 0.000000 -98.229417 29.536170 -48.772834 -0.000000 -28.953100 0.000000 0.230755 16.505022 8.705513 -1.540035 3.690180 6.142349 3.939047 7.948710 0.746815 -0.579464 1.575002 2.538712 -0.000001 0.000004 0.000002 -0.000001 0.000002 0.000007 -0.000000 0.000005 -0.000020 -0.000001 -0.000003 -0.000013 0.000001 -0.000000 0.000001 0.000001 -0.001929 0.015990 -0.000001 0.001938 -0.016002 -0.000002 -0.000002 -0.000014 -0.000000 -0.000000 -0.000001 -0.000001 0.000002 0.000007 -0.000001 0.000006 -0.000019 -0.000001 -0.000003 -0.000011 0.000000 -0.000001 0.000000 -0.018090 4.054255 0.511073 -0.018087 -4.054252 -0.511084 -0.000001 -0.000002 -0.000010 -0.000000 -0.000002 -0.000001 5.188619 10.588835 -17.043100 0.000000 0.000000 0.000000 -39.537820 45.274189 97.619803 0.000142 102.793814 -0.000141 6.308719 -5.800632 39.941310 -1.849249 -3.581792 -6.586143 4.637204 -8.634123 -0.225408 -1.273751 0.137310 -2.094878 0.000000 0.000002 0.000004 0.000000 0.000001 0.000003 0.000002 -0.000004 0.000026 0.000003 -0.000001 -0.000002 0.000000 -0.000000 -0.000001 0.000000 0.000001 0.000001 0.000002 -0.000003 0.000025 0.000004 -0.000002 -0.000004 0.000000 0.000000 0.000001 0.000003 0.000002 -0.000017 -0.000002 -0.000002 0.000042 0.000004 0.000000 -0.000004 -0.000000 0.000000 -0.000002 0.000000 0.000001 0.000001 0.000001 -0.000004 0.000026 0.000004 -0.000002 -0.000004 0.000000 -0.000000 0.000000 -102.634794 11.008168 -8.236272 80.491853 18.315386 7.444742 17.365476 -5.950559 1.639857 0.000010 0.000002 -0.000009 0.000000 -0.000000 -0.000000 -22.095648 8.712800 5.637767 82.710128 -2.034857 -0.183672 24.772160 -5.111907 11.020990 -15.615913 0.000013 -0.000010 -0.000000 0.000001 0.000000 
18.953438 9.718781 3.036087 -110.308436 70.461789 28.578285 15.160278 -7.546935 -7.503704 10.185752 -5.031189 -4.126516 0.000000 0.000000 0.000000 9.990490 -5.493609 -4.003242 -3.062562 7.250389 -14.443439 -28.110487 11.751714 -14.847706 0.000000 0.000000 -0.000001 4.107882 -4.790341 29.995052 0.000000 0.000000 0.000000 -98.160214 29.449511 -48.783544 0.000001 -28.883005 0.000001 0.431179 16.400604 8.843813 -1.540036 3.690188 6.142350 3.939049 7.948703 0.746814 -0.579467 1.575003 2.538716 -0.000000 0.000000 -0.000000 0.000001 0.000002 0.000012 -0.000001 0.000002 -0.000020 -0.000000 0.000001 -0.000010 0.000000 0.000001 0.000002 -0.000001 -0.001934 0.015990 0.000002 0.001927 -0.016002 -0.000002 0.000004 -0.000009 -0.000000 -0.000000 0.000000 0.000001 0.000002 0.000012 -0.000001 0.000001 -0.000018 -0.000001 0.000000 -0.000011 -0.000000 -0.000001 -0.000001 -0.018091 4.054255 0.511076 -0.018089 -4.054258 -0.511089 -0.000001 0.000001 -0.000012 -0.000000 -0.000000 -0.000001 5.169979 10.526237 -17.181295 0.000000 0.000000 0.000000 -39.744693 45.430003 97.916602 -0.000338 102.663508 0.000336 6.837463 -6.419682 39.016107 -1.849246 -3.581793 -6.586151 4.637205 -8.634128 -0.225397 -1.273765 0.137311 -2.094877 0.000000 0.000001 0.000000 -0.000001 0.000001 0.000001 0.000003 -0.000008 0.000018 0.000001 0.000002 -0.000000 -0.000000 -0.000000 -0.000002 -0.000001 0.000001 0.000001 0.000002 -0.000008 0.000017 0.000003 0.000003 0.000002 -0.000000 0.000001 0.000003 0.000002 0.000002 -0.000003 -0.000002 -0.000007 0.000021 0.000001 0.000001 -0.000000 -0.000001 -0.000000 -0.000000 -0.000001 0.000001 0.000001 0.000002 -0.000007 0.000019 0.000001 0.000001 -0.000001 -0.000001 -0.000000 0.000001 -102.459593 11.040694 -8.245474 80.631264 17.831623 7.322741 16.420178 -5.860085 1.317797 -0.000011 -0.000003 0.000015 0.000000 0.000002 0.000000 -22.110769 8.672329 5.657813 82.752584 -2.040728 -0.197865 24.773335 -5.078652 10.954746 -15.555180 0.000002 -0.000008 -0.000000 0.000000 -0.000001 
18.941628 9.709793 3.066376 -110.348727 70.402120 28.574172 15.114630 -7.540408 -7.421572 10.146128 -5.051333 -4.102145 0.000000 0.000000 0.000000 9.950386 -5.513616 -3.977268 -2.944886 7.257572 -14.552606 -28.093683 11.789466 -14.848543 0.000001 0.000000 0.000001 4.142329 -4.736911 29.766651 0.000000 0.000000 0.000000 -98.061081 29.336226 -48.805520 0.000002 -28.810155 0.000001 0.727786 16.318189 8.949745 -1.540034 3.690186 6.142350 3.939053 7.948709 0.746811 -0.579468 1.575007 2.538714 0.000001 0.000002 -0.000002 0.000001 0.000000 0.000011 0.000002 0.000003 -0.000017 -0.000001 -0.000002 -0.000014 0.000002 0.000000 0.000000 0.000001 -0.001935 0.015992 0.000001 0.001927 -0.016003 -0.000003 0.000001 -0.000011 0.000001 0.000000 0.000001 0.000001 0.000000 0.000012 0.000001 0.000002 -0.000015 -0.000001 -0.000005 -0.000013 -0.000000 0.000001 0.000000 -0.018089 4.054247 0.511074 -0.018089 -4.054244 -0.511079 -0.000000 -0.000001 -0.000013 0.000001 0.000001 0.000001 5.149343 10.461783 -17.293230 0.000000 0.000000 0.000000 -39.931574 45.580496 98.183758 -0.000199 102.561677 0.000210 7.264737 -6.997018 38.122776 -1.849252 -3.581794 -6.586141 4.637204 -8.634125 -0.225412 -1.273767 0.137315 -2.094875 0.000002 -0.000001 0.000001 -0.000003 -0.000000 0.000002 0.000001 -0.000001 0.000009 0.000000 -0.000002 0.000009 -0.000001 0.000001 0.000000 -0.000003 -0.000001 0.000002 0.000002 -0.000001 0.000009 -0.000001 -0.000001 0.000009 0.000000 -0.000000 -0.000001 -0.000003 -0.000000 -0.000003 0.000002 0.000000 0.000012 0.000000 -0.000002 0.000008 -0.000000 0.000000 0.000001 -0.000003 -0.000000 0.000001 0.000002 -0.000001 0.000009 0.000000 -0.000001 0.000009 0.000001 -0.000000 0.000002 -102.286645 11.065183 -8.247457 80.766878 17.367904 7.202756 15.516228 -5.769259 1.018333 -0.000003 0.000013 0.000004 0.000001 -0.000000 -0.000000 -22.119967 8.629098 5.677850 82.792500 -2.043527 -0.209817 24.772522 -5.050217 10.888267 -15.522827 -0.000011 0.000007 0.000002 -0.000001 0.000001 
